<mxfile host="65bd71144e">
    <diagram id="Og4vJ6zSL0baAbcoUUTR" name="Page-1">
        <mxGraphModel dx="594" dy="561" grid="1" gridSize="10" guides="1" tooltips="1" connect="1" arrows="1" fold="1" page="1" pageScale="1" pageWidth="850" pageHeight="1100" math="0" shadow="0">
            <root>
                <mxCell id="0"/>
                <mxCell id="1" parent="0"/>
                <mxCell id="13" value="Volume of a Sphere (with Query Strings)" style="swimlane;" vertex="1" parent="1">
                    <mxGeometry x="210" y="240" width="300" height="230" as="geometry"/>
                </mxCell>
                <mxCell id="15" value="Volume = 4/3 pi r&lt;span style=&quot;font-size: 10px&quot;&gt;&lt;sup&gt;3&lt;/sup&gt;&lt;/span&gt;" style="text;html=1;strokeColor=none;fillColor=none;align=center;verticalAlign=middle;whiteSpace=wrap;rounded=0;" vertex="1" parent="13">
                    <mxGeometry y="50" width="140" height="30" as="geometry"/>
                </mxCell>
                <mxCell id="16" value="" style="ellipse;whiteSpace=wrap;html=1;aspect=fixed;" vertex="1" parent="13">
                    <mxGeometry x="215" y="40" width="80" height="80" as="geometry"/>
                </mxCell>
                <mxCell id="17" value="&lt;font style=&quot;font-size: 12px&quot;&gt;Radius = 3&lt;br&gt;Volume is&amp;nbsp;&lt;span style=&quot;font-family: &amp;#34;arial&amp;#34; , sans-serif&quot;&gt;113.097335529&lt;/span&gt;&lt;/font&gt;" style="text;html=1;strokeColor=none;fillColor=none;align=center;verticalAlign=middle;whiteSpace=wrap;rounded=0;" vertex="1" parent="13">
                    <mxGeometry y="80" width="150" height="100" as="geometry"/>
                </mxCell>
            </root>
        </mxGraphModel>
    </diagram>
</mxfile>